<?xml version="1.0" encoding="utf-8"?>
<!-- Generator: Adobe Illustrator 26.4.1, SVG Export Plug-In . SVG Version: 6.00 Build 0)  -->
<svg version="1.1" id="Layer_1" xmlns="http://www.w3.org/2000/svg" xmlns:xlink="http://www.w3.org/1999/xlink" x="0px" y="0px"
	 viewBox="0 0 681.88 224.47" style="enable-background:new 0 0 681.88 224.47;" xml:space="preserve">
<style type="text/css">
	.st0{fill:#2970B7;}
	.st1{fill:#EE6025;}
	.st2{fill:#2A70B7;}
	.st3{fill:#6FBD47;}
	.st4{fill:#6EBC47;}
	.st5{fill:#EE6127;}
	.st6{fill:#F38B62;}
	.st7{fill:#EF632A;}
	.st8{fill:#2A71B7;}
	.st9{fill:#EE6228;}
	.st10{fill:#EE6229;}
</style>
<path class="st0" d="M150.63,205.04c-6.67-3.47-8.97-9.08-8.69-16.36c0.46-12.02-0.47-24.06,0.46-36.08
	c6.87-8.46,13.74-16.92,20.62-25.38c4.35,2.66,5.39,6.87,5.4,11.53c0.02,11.93,0.14,23.87-0.08,35.8c-0.06,3.57,0.66,4.94,4.59,4.78
	c7.97-0.33,15.98-0.33,23.95,0c3.95,0.16,4.6-1.28,4.58-4.82c-0.13-30-0.08-60-0.07-90c0-1.82,0.15-3.64,0.23-5.46
	c8.58-10.34,17.16-20.68,25.75-31.01c0.06,25.02,0.14,50.04,0.17,75.06c0.03,21.54-0.22,43.09,0.13,64.63
	c0.12,7.41-1.68,13.26-8.09,17.31C196.59,205.04,173.61,205.04,150.63,205.04z"/>
<path class="st1" d="M82.49,91.78c-4.52-2.77-5.51-7.18-5.53-12C76.92,68.01,76.71,56.22,77,44.45c0.1-4.12-1.3-4.93-5.06-4.8
	c-7.82,0.28-15.66,0.35-23.47,0.02c-3.96-0.17-4.62,1.27-4.59,4.81c0.26,29.36,0.34,58.72,0.44,88.07c0.01,2.31-0.23,4.62-0.35,6.93
	c-8.37,10.22-16.74,20.44-25.11,30.66c-0.05-34.14-0.1-68.28-0.15-102.41c0.01-10.75,0.04-21.5,0.01-32.26
	c0-1.59,0.55-3.36-0.98-4.65c0-2.32,0-4.65,0-6.97c1.68-4.5,4.66-7.83,8.99-9.95c22.65,0,45.29,0,67.94,0
	c6.41,3.43,8.82,8.84,8.64,15.96c-0.29,12.06-0.2,24.13-0.27,36.19C96.2,74.63,89.34,83.21,82.49,91.78z"/>
<path class="st2" d="M303.5,205.04c-0.79-8.76-2.36-10.15-11.18-10.23c-7.38-0.07-14.58,1.21-21.75,2.68
	c-10.37,2.13-14.68-0.78-16.33-11.02c-1.37-8.48,0.69-16.13,5.64-23.02c1.41-1.96,1.98-3.24,0.21-5.55
	c-9.72-12.65-10.04-27.11-1.18-38.46c9.16-11.74,26.36-16.7,40-10.53c5.18,2.34,9.29,2.46,13.9-0.2c4.17-2.41,6.6-1.16,8,3.39
	c0.92,2.99,2.35,5.85,3.84,8.62c1.47,2.74,1.28,4.38-2.2,4.49c-3.6,0.11-4.32,1.52-3.48,5.08c5.19,22.23-13.18,42.13-36.05,39.23
	c-2.59-0.33-5.1-0.81-6.08,2.47c-0.54,1.81-2.43,3.71-0.77,5.53c1.41,1.54,3.42,0.35,5.18-0.01c7.06-1.45,14.15-2.23,21.28-0.59
	c13.24,3.05,20.14,12.8,19.97,28.12C316.16,205.04,309.83,205.04,303.5,205.04z M286.23,151.42c8.41-0.03,14.47-5.9,14.32-13.86
	c-0.13-6.71-6.74-12.96-13.82-13.07c-8.19-0.13-14.52,5.93-14.43,13.82C272.39,145.82,278.37,151.45,286.23,151.42z"/>
<path class="st2" d="M650.2,167.21c-9.49,17.98-28.18,23.81-50.14,15.6c-3.74-1.4-7.24-3.29-10.6-5.46
	c-2.13-1.38-2.52-2.89-1.14-4.95c0.28-0.41,0.51-0.85,0.77-1.27c2.1-3.36,3.47-7.89,6.5-9.77c3.39-2.1,6.47,2.69,10.02,3.79
	c5.33,1.64,10.66,2.71,16.19,1.9c2.8-0.41,5.86-1.33,6.25-4.75c0.42-3.7-2.67-4.57-5.43-5.32c-6.08-1.64-12.44-2.25-18.23-4.91
	c-7.87-3.61-13.65-8.9-14.2-18.15c-0.72-12.1,4.71-19.94,16.45-23.36c13.07-3.81,25.62-1.98,37.77,3.85
	c2.77,1.33,3.31,2.8,1.63,5.38c-2.17,3.33-3.47,7.59-6.36,9.99c-3.66,3.04-7.07-1.9-10.88-2.32c-4.29-0.47-8.5-1.61-12.84-0.46
	c-2.41,0.63-4.45,1.68-4.59,4.49c-0.14,2.81,1.72,4.23,4.15,4.83c4.35,1.08,8.74,1.94,13.11,2.95c10.24,2.37,18.41,7.22,21.59,18.01
	C650.2,160.57,650.2,163.89,650.2,167.21z"/>
<path class="st3" d="M18.86,170.15c8.37-10.22,16.74-20.44,25.11-30.66c0.95,11.41,0.4,22.85,0.37,34.26
	c-0.01,4.16,0.73,5.69,5.38,5.59c15.8-0.36,31.61-0.18,47.42-0.2c9.06-0.01,14.07,3.07,15.94,9.72c1.78,6.34-0.83,11.36-8.4,16.18
	c-25.98,0-51.96,0-77.93,0c-4.19-1.8-6.16-5.81-8.99-8.96c0-8.3,0-16.59,0-24.89C18.12,170.84,18.49,170.49,18.86,170.15z"/>
<path class="st4" d="M227.36,48.04c-8.58,10.34-17.16,20.67-25.75,31.01c-0.07-11.59-0.32-23.18-0.13-34.77
	c0.06-3.81-1.1-4.7-4.78-4.65c-16.13,0.2-32.26,0.09-48.38,0.08c-8.73,0-13.83-3.08-15.68-9.43c-1.88-6.48,0.59-11.54,7.99-16.38
	c26.31,0,52.62,0,78.93,0c6.4,4.05,8.64,9.87,8.04,17.29C227.16,36.78,227.42,42.42,227.36,48.04z"/>
<path class="st5" d="M267.53,13.9c-0.02,5.8,0.12,11.6-0.13,17.39c-0.14,3.24,0.85,4.1,3.96,3.26c5.05-1.37,10.23-1.48,15.31-0.29
	c7.72,1.81,12.18,7.02,12.52,15.86c0.46,12.08,0.17,24.19,0.26,36.29c0.02,2.1-0.74,3.12-2.9,2.95c-0.33-0.03-0.67-0.01-1,0
	c-10.09,0.35-10.09,0.35-10.09-9.69c0-8.95-0.14-17.9,0.09-26.84c0.1-3.9-1.52-5.49-5.19-5.54c-0.5-0.01-1-0.04-1.5-0.03
	c-10.54,0.16-11.43,1.05-11.42,11.36c0.01,8.78-0.15,17.57,0.08,26.35c0.09,3.57-1.17,4.48-4.58,4.47
	c-9.43-0.03-9.43,0.11-9.43-9.41c0-22.04,0-44.08,0-66.12C258.21,13.9,262.87,13.9,267.53,13.9z"/>
<path class="st5" d="M650.2,86.57c-9.48,2.62-19.1,4.33-28.99,3.98c-9.36-0.33-15.3-5.41-16.65-14.01
	c-1.46-9.33,2.59-16.34,11.37-19.65c5.56-2.1,11.37-2.32,17.2-1.95c3.31,0.21,3.29-1.23,1.97-3.46c-1.62-2.74-4.28-3.62-7.23-3.52
	c-3.99,0.13-8.02,0.56-11.59,2.5c-2.44,1.33-3.59,0.7-4.19-1.78c-0.04-0.16-0.11-0.31-0.18-0.46c-4.53-10.34-4.36-10.72,6.95-13.13
	c2.27-0.48,4.59-0.77,6.91-0.96c12.92-1.03,18.98,3.11,24.41,16.6C650.2,62.68,650.2,74.63,650.2,86.57z M630.18,67.97
	c-3.14,0.18-6.37-0.04-9.16,1.79c-1.6,1.04-2.73,2.5-2.52,4.53c0.15,1.42,1.03,2.56,2.4,2.91c4.84,1.24,9.55,0.4,14.16-1.2
	c0.91-0.31,1.03-1.11,1.21-1.97C637.37,68.77,636.46,67.85,630.18,67.97z"/>
<path class="st6" d="M18.86,170.15c-0.37,0.35-0.75,0.7-1.12,1.05c0-34.51,0-69.02,0-103.53c0.32,0.01,0.65,0.03,0.97,0.07
	C18.76,101.87,18.81,136.01,18.86,170.15z"/>
<path class="st7" d="M18.71,67.73c-0.32-0.04-0.64-0.07-0.97-0.07c0-12.28,0-24.56,0-36.83c1.53,1.29,0.97,3.06,0.98,4.65
	C18.75,46.23,18.72,56.98,18.71,67.73z"/>
<path class="st8" d="M405.52,149.26c0-9.78,0.12-19.56-0.06-29.34c-0.06-3.52,1.14-5.51,4.56-6.61c12.5-4.03,25.19-7.26,37.93-1.91
	c4.95,2.08,8.77,2.6,13.74,0.24c7.05-3.35,14.75-3.57,22.47-2.09c13.15,2.52,22.49,12.88,22.97,26.91
	c0.5,14.57,0.1,29.17,0.22,43.76c0.02,3.14-1.41,4.02-4.27,3.93c-4.16-0.13-8.33-0.24-12.47,0.03c-3.85,0.25-4.9-1.47-4.87-4.97
	c0.1-12.93-0.17-25.86,0.09-38.79c0.26-12.84-8.22-13.17-16.16-11.6c-2.78,0.55-3.42,1.96-3.1,4.95
	c1.64,15.69,0.41,31.45,0.73,47.18c0.05,2.31-1.24,3.2-3.47,3.18c-4.82-0.05-9.65-0.07-14.47,0c-3.85,0.06-3.6-2.63-3.61-5.14
	c-0.02-11.94-0.01-23.87-0.01-35.81c0-1.82,0.01-3.65-0.11-5.47c-0.55-8.22-9.85-13.05-16.99-8.89c-1.93,1.13-1.29,2.89-1.29,4.43
	c-0.05,15.08-0.16,30.17,0.05,45.25c0.06,4.32-1.24,6.08-5.68,5.67c-3.46-0.32-7-0.3-10.47,0c-4.31,0.37-5.92-1.12-5.79-5.57
	C405.71,168.82,405.52,159.04,405.52,149.26z"/>
<path class="st0" d="M394.01,155.84c-0.01,6.8-0.11,13.6,0.04,20.39c0.08,3.46-0.91,5.47-4.64,6.34
	c-13.9,3.25-27.83,5.12-41.92,1.49c-11.13-2.86-17.42-10.01-18.01-19.88c-0.73-12.07,4.51-19.55,16.24-22.81
	c7.12-1.97,14.39-2.43,21.75-1.4c5.17,0.72,5.41,0.24,4.37-4.9c-1.09-5.38-4.8-7.26-9.69-7.57c-6.23-0.39-12.32,0.54-17.97,3.23
	c-2.89,1.38-4.66,1.02-5.9-1.97c-0.63-1.52-1.53-2.94-2.3-4.41c-4.06-7.73-4.1-7.84,4.2-11.33c10.37-4.36,21.15-5.64,32.23-3.47
	c11.85,2.31,19.66,11.13,21.02,23.42C394.28,140.59,393.92,148.22,394.01,155.84z M364.25,154.32c0-0.06,0-0.12,0-0.18
	c-0.33,0-0.66,0-0.99,0c-8.36-0.03-11.96,2.16-11.82,7.18c0.13,4.77,3.82,6.97,11.66,6.96c9.2-0.02,9.57-0.53,9.31-10.06
	c-0.07-2.77-1.02-3.95-3.7-3.9C367.22,154.34,365.73,154.32,364.25,154.32z"/>
<path class="st2" d="M560.04,154.62c-5.83,0-11.66,0.14-17.48-0.05c-3.04-0.1-3.68,1.18-3.43,3.86c0.44,4.78,3.44,8.13,8.52,8.92
	c6.82,1.06,13.38-0.2,19.24-3.62c3.51-2.05,5.41-1.23,7.23,1.83c0.59,0.99,1.39,1.86,2.08,2.79c5.59,7.44,5.59,7.74-2.92,12.11
	c-11.6,5.96-23.78,7.27-36.29,3.49c-12.61-3.82-19.51-13.13-19.75-26.19c-0.13-6.8-0.13-13.6-0.01-20.4
	c0.27-14.44,7.51-23.67,21.5-27.35c8.75-2.29,17.47-2.1,25.95,1.3c10.29,4.12,15.74,11.89,16.53,22.79
	c0.38,5.28,0.04,10.61,0.3,15.91c0.17,3.41-0.95,4.79-4.52,4.65C571.36,154.45,565.7,154.61,560.04,154.62z M549.31,140.6
	c2.65,0,5.31-0.12,7.95,0.03c2.6,0.16,3.49-0.82,3.36-3.42c-0.21-4.29-1.54-7.87-5.76-9.56c-4.41-1.77-8.86-1.64-12.68,1.45
	c-3.17,2.56-3.79,6.48-2.82,9.97c0.85,3.06,4.26,1.02,6.48,1.49C546.95,140.79,548.15,140.6,549.31,140.6z"/>
<path class="st7" d="M521.45,64.01c0-6.8,0.11-13.6-0.05-20.4c-0.07-2.9,0.6-4.5,3.76-5.25c8.39-1.98,16.97-6.3,25.33-3.29
	c8.19,2.95,15.28,0.8,22.94-0.49c15.9-2.67,23.81,4.17,23.82,20.12c0.01,10.12-0.14,20.24,0.08,30.35c0.08,3.57-1.11,4.47-4.57,4.41
	c-9.1-0.17-9.11-0.01-9.11-8.86c0-8.96-0.12-17.92,0.05-26.87c0.08-4.3-1.83-6.1-5.96-5.96c-0.17,0.01-0.33,0-0.5,0
	c-9.96-0.02-10.99,0.98-10.99,10.69c0,8.96-0.15,17.92,0.08,26.87c0.08,3.38-1.1,4.23-4.3,4.15c-11.52-0.26-9.24,1.1-9.38-9.04
	c-0.12-8.62,0.05-17.25,0.02-25.87c-0.02-5.81-1.27-6.94-7.12-6.8c-9.58,0.24-10.31,0.97-10.31,10.35c0,9.12-0.11,18.25,0.06,27.37
	c0.06,3.04-0.9,4.07-3.98,3.99c-12.13-0.31-9.61,1.46-9.85-9.54C521.36,74.63,521.45,69.32,521.45,64.01z"/>
<path class="st9" d="M436.79,78.77c-1.16-0.06-2.33-0.22-3.49-0.17c-2.74,0.13-3.13,2.51-3.17,4.3c-0.06,2.84,2.34,1.72,3.69,1.39
	c3.28-0.8,6.58-0.99,9.9-0.94c11.92,0.16,19.17,7.46,19.4,19.37c0.07,3.58-0.59,6.33-5.23,5.54c-1.29-0.22-2.67-0.16-3.98-0.01
	c-3.23,0.38-4.36-1.02-4.55-4.19c-0.41-6.8-1.44-7.56-8.19-7.59c-5.2-0.03-10.22,1.11-15.29,2c-6.99,1.23-9.9-0.86-11.05-7.85
	c-0.93-5.66,0.4-10.89,3.59-15.59c1.26-1.86,1.52-3.09,0.07-5.17c-6.55-9.33-6.48-18.68-0.16-26.6c6.5-8.15,18.28-11.5,27.89-7.28
	c3.58,1.57,6.47,1.84,9.74-0.07c2.97-1.74,4.84-0.98,5.8,2.44c0.53,1.89,1.53,3.66,2.45,5.42c1.13,2.16,1.39,3.76-1.82,3.86
	c-2.61,0.08-2.18,1.8-1.93,3.53C462.8,67.29,452.74,79.02,436.79,78.77z M437.56,65.85c5.76-0.09,9.93-4.13,9.86-9.55
	c-0.07-4.77-4.83-9.31-9.81-9.34c-5.37-0.03-10.1,4.43-10.12,9.55C427.47,61.81,431.91,65.93,437.56,65.85z"/>
<path class="st5" d="M512.3,68.77c0,4.98-0.04,9.95,0.02,14.93c0.02,1.86-0.33,3.34-2.45,3.63c-8.87,1.23-17.57,3.81-26.67,3.27
	c-9.45-0.56-15.34-5.45-16.65-14.06c-1.43-9.37,2.56-16.35,11.42-19.64c5.55-2.06,11.36-2.47,17.22-2.04
	c3.51,0.26,3.15-1.37,1.9-3.46c-1.51-2.52-3.98-3.44-6.79-3.45c-4.03-0.02-8.11,0.45-11.62,2.35c-3.09,1.67-3.83,0.41-4.89-2.14
	c-4.06-9.73-4.13-9.69,5.96-12.66c6.04-1.78,12.16-1.9,18.26-0.52c8.42,1.91,13.63,9,14.16,19.37c0.25,4.8,0.04,9.62,0.04,14.43
	C512.23,68.77,512.26,68.77,512.3,68.77z M492.95,67.8c-3.42,0.12-6.59,0.15-9.44,1.67c-2.02,1.08-3.47,2.73-2.89,5.18
	c0.54,2.27,2.42,2.94,4.57,3.01c2.81,0.1,5.57-0.26,8.36-0.58c4.46-0.52,5.25-2.96,4.85-6.76C497.94,65.95,494.59,68.62,492.95,67.8
	z"/>
<path class="st10" d="M353.36,60.13c0,7.3-0.04,14.59,0.02,21.89c0.02,1.98-0.18,3.63-2.47,4.2c-8.21,2.04-16.26,4.8-24.94,4.31
	c-10.72-0.61-17.19-6.19-17.74-16.92c-0.61-11.91-0.28-23.86-0.44-35.8c-0.03-2.38,0.97-3.03,3.28-3.17
	c10.63-0.64,10.64-0.71,10.63,9.65c-0.01,8.79,0.1,17.58-0.11,26.36c-0.12,4.81,2.15,6.62,6.64,6.42c0.5-0.02,1-0.04,1.5-0.07
	c9.79-0.57,9.79-0.57,9.79-10.21c0-9.29,0.11-18.57-0.06-27.86c-0.06-3.15,0.74-4.33,4.13-4.32c9.76,0.02,9.77-0.13,9.77,9.6
	C353.36,49.52,353.36,54.82,353.36,60.13z"/>
<path class="st5" d="M406.35,68.67c0,5.81-0.07,11.61,0.04,17.41c0.04,2.27-0.66,3.14-3.08,3.34c-10.79,0.92-10.79,1.01-10.78-9.65
	c0.01-8.29,0.06-16.59,0.04-24.88c-0.01-6.11-1.54-7.46-7.81-7.13c-7.67,0.41-8.31,1.08-8.31,8.68c0,9.45-0.19,18.91,0.09,28.36
	c0.11,3.85-1.2,4.73-4.84,4.68c-9.22-0.14-9.22,0.02-9.22-9.2c0-12.11,0.14-24.22-0.09-36.32c-0.06-3.4,0.91-5.1,4.25-5.99
	c7.24-1.95,14.44-3.84,22.07-3.4c10.8,0.61,17.19,6.87,17.57,17.68c0.2,5.47,0.03,10.95,0.03,16.42
	C406.32,68.67,406.34,68.67,406.35,68.67z"/>
<path class="st4" d="M163.02,127.22c-6.87,8.46-13.75,16.92-20.62,25.38c-0.92-2.97-3.42-2.08-5.42-2.09
	c-15.29-0.06-30.58,0.05-45.87-0.09c-6.95-0.06-12.11-4.7-13.15-11.27c-0.93-5.83,2.82-12.03,8.71-14.05
	c1.68-0.58,3.57-0.78,5.37-0.79c20.77-0.05,41.55-0.04,62.32-0.03C157.57,124.29,160.67,124.67,163.02,127.22z"/>
<path class="st4" d="M82.49,91.78c6.86-8.58,13.71-17.15,20.57-25.73c0.56,3.22,3.1,2.36,5.1,2.36c15.44,0.01,30.89-0.15,46.33-0.02
	c7.08,0.06,12.37,5.2,12.96,11.97c0.53,6.1-3.8,12.04-10.04,13.68c-1.11,0.29-2.29,0.41-3.44,0.41c-21.26,0.06-42.51,0.09-63.77,0.1
	C87.32,94.56,84.59,93.98,82.49,91.78z"/>
</svg>
